<?xml version="1.0" encoding="utf-8"?>
<!-- Generator: Adobe Illustrator 21.0.2, SVG Export Plug-In . SVG Version: 6.00 Build 0)  -->
<svg version="1.1" id="Layer_1" xmlns="http://www.w3.org/2000/svg" xmlns:xlink="http://www.w3.org/1999/xlink" x="0px" y="0px"
	 viewBox="0 0 552.3 162.1" style="enable-background:new 0 0 552.3 162.1;" xml:space="preserve">
<style type="text/css">
	.st0{fill:#0E0D0E;}
</style>
<g>
	<path class="st0" d="M109.3,67.3h-45c-1.2,0-2.1,0.9-2.1,2.1v22c0,1.2,0.9,2.1,2.1,2.1h17.5v27.3c0,0-3.9,1.3-14.8,1.3
		c-12.8,0-30.8-4.7-30.8-44.1c0-39.5,18.7-44.7,36.2-44.7c15.2,0,21.7,2.7,25.9,4c1.3,0.4,2.5-0.9,2.5-2.1l5-21.2
		c0-0.5-0.2-1.2-0.8-1.6c-1.7-1.2-12-7-38.1-7C37,5.3,6.2,18.1,6.2,79.5c0,61.4,35.2,70.5,64.9,70.5c24.6,0,39.5-10.5,39.5-10.5
		c0.6-0.3,0.7-1.2,0.7-1.6V69.4C111.4,68.2,110.4,67.3,109.3,67.3z"/>
	<path class="st0" d="M341,12.7c0-1.2-0.9-2.1-2.1-2.1h-25.3c-1.2,0-2.1,0.9-2.1,2.1c0,0,0,48.9,0,48.9H272V12.7
		c0-1.2-0.9-2.1-2.1-2.1h-25.3c-1.2,0-2.1,0.9-2.1,2.1v132.5c0,1.2,0.9,2.1,2.1,2.1h25.3c1.2,0,2.1-1,2.1-2.1V88.5h39.5
		c0,0-0.1,56.7-0.1,56.7c0,1.2,0.9,2.1,2.1,2.1h25.4c1.2,0,2.1-1,2.1-2.1V12.7z"/>
	<g>
		<g>
			<path class="st0" d="M157,30.1c0-9.1-7.3-16.5-16.3-16.5c-9,0-16.3,7.4-16.3,16.5c0,9.1,7.3,16.5,16.3,16.5
				C149.7,46.6,157,39.2,157,30.1z"/>
			<path class="st0" d="M155.2,117.2c0-3.4,0-61.1,0-61.1c0-1.2-0.9-2.1-2.1-2.1h-25.2c-1.2,0-2.2,1.2-2.2,2.4c0,0,0,73.6,0,87.6
				c0,2.6,1.6,3.3,3.7,3.3c0,0,10.8,0,22.7,0c2.5,0,3.1-1.2,3.1-3.4C155.2,139.2,155.2,120.8,155.2,117.2z"/>
		</g>
	</g>
	<path class="st0" d="M437.2,54.2h-25.1c-1.2,0-2.1,0.9-2.1,2.1v64.9c0,0-6.4,4.7-15.4,4.7c-9.1,0-11.5-4.1-11.5-13
		c0-8.9,0-56.6,0-56.6c0-1.2-0.9-2.1-2.1-2.1h-25.5c-1.2,0-2.1,0.9-2.1,2.1c0,0,0,34.6,0,60.9c0,26.3,14.7,32.8,34.9,32.8
		c16.6,0,29.9-9.2,29.9-9.2s0.6,4.8,0.9,5.4c0.3,0.6,1,1.1,1.8,1.1l16.2-0.1c1.2,0,2.1-1,2.1-2.1l0-88.9
		C439.3,55.1,438.3,54.2,437.2,54.2z"/>
	<path class="st0" d="M505.8,51.2c-14.3,0-24,6.4-24,6.4V12.7c0-1.2-0.9-2.1-2.1-2.1h-25.4c-1.2,0-2.1,0.9-2.1,2.1v132.5
		c0,1.2,0.9,2.1,2.1,2.1c0,0,17.6,0,17.6,0c0.8,0,1.4-0.4,1.8-1.1c0.4-0.7,1.1-6.1,1.1-6.1s10.4,9.8,30,9.8
		c23.1,0,36.3-11.7,36.3-52.5C541.2,56.5,520.1,51.2,505.8,51.2z M495.9,125.8c-8.7-0.3-14.6-4.2-14.6-4.2V79.6c0,0,5.8-3.6,13-4.2
		c9-0.8,17.8,1.9,17.8,23.5C512,121.7,508.1,126.2,495.9,125.8z"/>
	<path class="st0" d="M228,53.9h-19c0,0,0-25.1,0-25.1c0-0.9-0.5-1.4-1.6-1.4h-25.9c-1,0-1.5,0.4-1.5,1.4v25.9c0,0-13,3.1-13.8,3.4
		c-0.9,0.3-1.5,1.1-1.5,2v16.3c0,1.2,0.9,2.1,2.1,2.1H180c0,0,0,17,0,39.2c0,29.1,20.4,32,34.2,32c6.3,0,13.8-2,15.1-2.5
		c0.8-0.3,1.2-1.1,1.2-1.9l0-17.9c0-1.2-1-2.1-2.1-2.1c-1.1,0-3.9,0.5-6.9,0.5c-9.3,0-12.5-4.3-12.5-9.9c0-5.6,0-37.2,0-37.2h19
		c1.2,0,2.1-0.9,2.1-2.1V56.1C230.1,54.9,229.1,53.9,228,53.9z"/>
</g>
</svg>
