<?xml version="1.0" encoding="utf-8"?>
<!-- Generator: Adobe Illustrator 21.0.2, SVG Export Plug-In . SVG Version: 6.00 Build 0)  -->
<svg version="1.1" id="Layer_1" xmlns="http://www.w3.org/2000/svg" xmlns:xlink="http://www.w3.org/1999/xlink" x="0px" y="0px"
	 viewBox="0 0 577.1 221.9" style="enable-background:new 0 0 577.1 221.9;" xml:space="preserve">
<style type="text/css">
	.st0{fill:#6D6E6D;}
	.st1{clip-path:url(#XMLID_58_);fill:#DC4537;}
	.st2{clip-path:url(#XMLID_69_);}
	.st3{clip-path:url(#XMLID_69_);fill:#517CBE;}
	.st4{clip-path:url(#XMLID_89_);fill:#426BB2;}
	.st5{clip-path:url(#XMLID_92_);fill:#FFFFFF;}
	.st6{clip-path:url(#XMLID_92_);fill:#E36960;}
	.st7{clip-path:url(#XMLID_92_);}
	.st8{clip-path:url(#XMLID_92_);fill:#7098D0;}
	.st9{clip-path:url(#XMLID_96_);fill:#BD3E33;}
	.st10{clip-path:url(#XMLID_96_);}
	.st11{clip-path:url(#XMLID_96_);fill:#C25D54;}
	.st12{clip-path:url(#XMLID_100_);fill:#7098D0;}
	.st13{clip-path:url(#XMLID_100_);fill:#6589C6;}
	.st14{clip-path:url(#XMLID_100_);fill:#8BAEDC;}
	.st15{clip-path:url(#XMLID_103_);}
	.st16{clip-path:url(#XMLID_117_);fill:#FCC010;}
	.st17{clip-path:url(#XMLID_123_);}
	.st18{clip-path:url(#XMLID_123_);fill:#0C9E58;}
	.st19{clip-path:url(#XMLID_142_);}
	.st20{clip-path:url(#XMLID_142_);fill:#41B17A;}
	.st21{clip-path:url(#XMLID_154_);fill:#FECD3D;}
	.st22{clip-path:url(#XMLID_154_);}
	.st23{clip-path:url(#XMLID_160_);}
	.st24{clip-path:url(#XMLID_160_);fill:#168853;}
	.st25{clip-path:url(#XMLID_160_);fill:#38986D;}
	.st26{clip-path:url(#XMLID_165_);}
</style>
<g id="XMLID_2_">
	<path id="XMLID_45_" class="st0" d="M245.9,148.7h14.7c15,0,24.4,10,24.4,24c0,14.1-9.4,24-24.4,24h-14.7V148.7z M260.6,190.9
		c11,0,18.1-6.6,18.1-18.1c0-11.5-7.1-18.1-18.1-18.1h-8.5v36.3H260.6z M288.4,180.4c0-9.3,6.4-17.5,16.1-17.5
		c9.8,0,16.1,6.9,16.1,17.5c0,0.5-0.1,1.1-0.1,1.1h-26c0.3,7,5.4,10.7,10.5,10.7c3.6,0,7.3-1.5,9-5.6l5.5,2.3c-1.9,4.7-6.8,9-14.4,9
		C295.1,197.9,288.4,190.3,288.4,180.4z M304.4,168.5c-4.6,0-8.2,3.1-9.4,7.9H314C313.8,173.5,311.4,168.5,304.4,168.5z
		 M322.8,163.9h6.7l9.7,25.5h0.1l9.8-25.5h6.6l-13.4,32.9h-6.2L322.8,163.9z M356.1,180.4c0-9.3,6.4-17.5,16.1-17.5
		c9.8,0,16.1,6.9,16.1,17.5c0,0.5-0.1,1.1-0.1,1.1h-26c0.3,7,5.4,10.7,10.5,10.7c3.6,0,7.3-1.5,9-5.6l5.5,2.3c-1.9,4.7-6.8,9-14.4,9
		C362.8,197.9,356.1,190.3,356.1,180.4z M372.1,168.5c-4.6,0-8.2,3.1-9.4,7.9h19.1C381.6,173.5,379.2,168.5,372.1,168.5z
		 M393.3,196.8v-48.1h6.2v48.1H393.3z M438.3,180.4c0,10-7.1,17.5-16.9,17.5c-9.9,0-16.9-7.5-16.9-17.5c0-10,7.1-17.5,16.9-17.5
		C431.3,162.8,438.3,170.4,438.3,180.4z M432.2,180.4c0-7.5-5.2-11.9-10.7-11.9s-10.7,4.4-10.7,11.9c0,7.5,5.2,11.9,10.7,11.9
		S432.2,187.9,432.2,180.4z M449.2,192.3h-0.3l0.3,4.6v14.5H443v-47.4h5.9v4.6h0.3c1.9-3,6-5.6,11.2-5.6c8.3,0,15.7,7.5,15.7,17.5
		c0,10.1-7.3,17.5-15.7,17.5C455.2,197.9,451.1,195.3,449.2,192.3z M469.9,180.4c0-7.4-5-11.9-10.5-11.9c-5.5,0-10.5,4.4-10.5,11.9
		c0,7.5,5,11.9,10.5,11.9C464.9,192.3,469.9,187.8,469.9,180.4z M479.5,180.4c0-9.3,6.4-17.5,16.1-17.5c9.8,0,16.1,6.9,16.1,17.5
		c0,0.5-0.1,1.1-0.1,1.1h-26c0.3,7,5.4,10.7,10.5,10.7c3.6,0,7.3-1.5,9-5.6l5.5,2.3c-1.9,4.7-6.8,9-14.4,9
		C486.2,197.9,479.5,190.3,479.5,180.4z M495.5,168.5c-4.6,0-8.2,3.1-9.4,7.9h19.1C505,173.5,502.5,168.5,495.5,168.5z M516.7,196.8
		v-32.9h5.9v5.4h0.3c1.3-3.8,6.1-6.2,9.5-6.2c2,0,3.4,0.3,4.6,0.8l-2.4,5.8c-0.9-0.3-1.9-0.5-3.3-0.5c-4.2,0-8.5,3.6-8.5,9.6v18
		H516.7z M538.9,188.5l5.5-2.3c1.7,4.2,5,6.2,8.9,6.2c3.8,0,6.6-1.9,6.6-4.6c0-1.7-1-3.5-4.5-4.4l-6.6-1.6c-3-0.7-8.8-3.4-8.8-9.1
		c0-6,6.2-9.8,13-9.8c5.7,0,10.7,2.6,12.7,7.7l-5.4,2.2c-1.3-3.1-4.3-4.4-7.5-4.4c-3.5,0-6.5,1.5-6.5,4.2c0,2.1,1.7,3.2,4.4,3.8
		l6.5,1.5c6.5,1.5,9.1,5.6,9.1,9.6c0,5.8-5.2,10.3-13,10.3C545.4,197.9,540.9,193.2,538.9,188.5z M39.2,197.9
		c8.2,0,14.4-2.7,19.2-7.7c5-5,6.5-12,6.5-17.6c0-1.7-0.1-3.4-0.4-4.7H39.2v7.5h18c-0.5,4.2-1.9,7.3-4.1,9.5
		c-2.6,2.6-6.7,5.5-13.9,5.5c-11.1,0-19.7-8.9-19.7-20c0-11.1,8.7-20,19.7-20c6,0,10.3,2.4,13.6,5.4l5.3-5.3
		c-4.5-4.3-10.5-7.6-18.9-7.6c-15.2,0-27.9,12.4-27.9,27.5C11.2,185.5,24,197.9,39.2,197.9z M85.4,162.4c-9.8,0-17.8,7.5-17.8,17.7
		c0,10.2,8,17.7,17.8,17.7c9.8,0,17.8-7.5,17.8-17.7C103.2,169.9,95.2,162.4,85.4,162.4z M85.4,190.9c-5.4,0-10-4.4-10-10.7
		c0-6.4,4.6-10.7,10-10.7c5.4,0,10,4.4,10,10.7C95.4,186.5,90.7,190.9,85.4,190.9z M124.2,162.4c-9.8,0-17.8,7.5-17.8,17.7
		c0,10.2,8,17.7,17.8,17.7c9.8,0,17.8-7.5,17.8-17.7C142,169.9,134,162.4,124.2,162.4z M124.2,190.9c-5.4,0-10-4.4-10-10.7
		c0-6.4,4.6-10.7,10-10.7c5.4,0,10,4.4,10,10.7C134.2,186.5,129.6,190.9,124.2,190.9z M171.9,163.5v2.9h-0.3c-1.7-2.1-5.1-4-9.3-4
		c-8.9,0-17,7.8-17,17.8c0,9.9,8.1,17.7,17,17.7c4.2,0,7.6-1.9,9.3-4h0.3v2.5c0,6.8-3.6,10.4-9.5,10.4c-4.8,0-7.7-3.4-8.9-6.3
		l-6.8,2.8c1.9,4.7,7.1,10.5,15.7,10.5c9.1,0,16.9-5.4,16.9-18.5v-31.8H171.9z M162.9,190.9c-5.4,0-9.9-4.5-9.9-10.7
		c0-6.2,4.5-10.8,9.9-10.8c5.3,0,9.5,4.6,9.5,10.8C172.4,186.4,168.2,190.9,162.9,190.9z M192.4,144.7h-7.8v52.1h7.8V144.7z
		 M213.8,190.9c-4,0-6.8-1.8-8.6-5.4l23.7-9.8l-0.8-2c-1.5-4-6-11.3-15.2-11.3c-9.1,0-16.7,7.2-16.7,17.7c0,9.9,7.5,17.7,17.6,17.7
		c8.1,0,12.8-5,14.8-7.9l-6-4C220.5,189,217.7,190.9,213.8,190.9z M213.2,169.3c3.1,0,5.7,1.5,6.6,3.8l-15.9,6.6
		C203.7,172.8,209.2,169.3,213.2,169.3z"/>
	<g id="XMLID_48_">
		<defs>
			<path id="XMLID_47_" d="M77,12.3H41.2L12.6,61.9c-1.8,3.2-1.8,7.1,0,10.3l28.6,49.6H77L45.5,67L77,12.3"/>
		</defs>
		<clipPath id="XMLID_58_">
			<use xlink:href="#XMLID_47_"  style="overflow:visible;"/>
		</clipPath>
		<polyline id="XMLID_49_" class="st1" points="45.5,67 77,12.3 41.2,12.3 27.6,36 45.5,67 		"/>
	</g>
	<g id="XMLID_52_">
		<defs>
			<path id="XMLID_51_" d="M77,12.3H41.2L12.6,61.9c-1.8,3.2-1.8,7.1,0,10.3l28.6,49.6H77L45.5,67L77,12.3"/>
		</defs>
		<clipPath id="XMLID_69_">
			<use xlink:href="#XMLID_51_"  style="overflow:visible;"/>
		</clipPath>
		<g id="XMLID_57_" class="st2">
			<defs>
				<path id="XMLID_56_" d="M27.8,36.4L27.8,36.4l14.8,25.7L27.8,36.4 M67.2,28.5H32.4l-4.5,7.8l22.1,22.1L67.2,28.5"/>
			</defs>
			<clipPath id="XMLID_76_">
				<use xlink:href="#XMLID_56_"  style="overflow:visible;"/>
			</clipPath>
			<g style="clip-path:url(#XMLID_76_);">
				
					<image style="overflow:visible;" width="48" height="41" id="XMLID_46_" xlink:href="23E38150.jpg"  transform="matrix(0.8554 0 0 0.8554 26.6389 27.6631)">
				</image>
			</g>
		</g>
		<path id="XMLID_53_" class="st3" d="M12.6,61.9c-1.8,3.2-1.8,7.1,0,10.3l28.6,49.6H77L27.6,36L12.6,61.9"/>
	</g>
	<g id="XMLID_60_">
		<defs>
			<path id="XMLID_59_" d="M77,12.3H41.2L12.6,61.9c-1.8,3.2-1.8,7.1,0,10.3l28.6,49.6H77L45.5,67L77,12.3"/>
		</defs>
		<clipPath id="XMLID_89_">
			<use xlink:href="#XMLID_59_"  style="overflow:visible;"/>
		</clipPath>
		<path id="XMLID_61_" class="st4" d="M11.3,67c0,0.1,0,0.3,0,0.4c0,0,0,0,0,0c0,1.3,0.4,2.7,0.9,3.9c0.1,0.3,0.3,0.5,0.4,0.8
			l28.6,49.6H77h-0.5l-0.5-0.8H41.2L12.6,71.3C11.9,69.9,11.4,68.5,11.3,67"/>
	</g>
	<g id="XMLID_63_">
		<defs>
			<path id="XMLID_62_" d="M77,12.3H41.2L12.6,61.9c-1.8,3.2-1.8,7.1,0,10.3l28.6,49.6H77L45.5,67L77,12.3"/>
		</defs>
		<clipPath id="XMLID_92_">
			<use xlink:href="#XMLID_62_"  style="overflow:visible;"/>
		</clipPath>
		<polyline id="XMLID_64_" class="st5" points="76.5,12.3 41.2,12.3 27.6,36 27.6,36 27.6,36 31.9,28.5 41.2,12.3 76.5,12.3 		"/>
		<polyline id="XMLID_65_" class="st6" points="76.5,12.3 41.2,12.3 31.9,28.5 32.4,28.5 41.2,13.1 76,13.1 76.5,12.3 		"/>
		<g id="XMLID_68_" class="st7">
			<defs>
				<polyline id="XMLID_67_" points="32.4,28.5 31.9,28.5 27.6,36 27.8,36.4 27.8,36.4 27.6,36 27.9,36.3 32.4,28.5 				"/>
			</defs>
			<clipPath id="XMLID_95_">
				<use xlink:href="#XMLID_67_"  style="overflow:visible;"/>
			</clipPath>
			<g style="clip-path:url(#XMLID_95_);">
				
					<image style="overflow:visible;" width="8" height="11" id="XMLID_44_" xlink:href="23E38151.jpg"  transform="matrix(0.8554 0 0 0.8554 26.6389 27.6631)">
				</image>
			</g>
		</g>
		<polyline id="XMLID_66_" class="st8" points="27.6,36 27.6,36 27.8,36.4 27.8,36.4 27.6,36 		"/>
	</g>
	<g id="XMLID_71_">
		<defs>
			<path id="XMLID_70_" d="M77,12.3H41.2L12.6,61.9c-1.8,3.2-1.8,7.1,0,10.3l28.6,49.6H77L45.5,67L77,12.3"/>
		</defs>
		<clipPath id="XMLID_96_">
			<use xlink:href="#XMLID_70_"  style="overflow:visible;"/>
		</clipPath>
		<polyline id="XMLID_72_" class="st9" points="77,12.3 76.5,13.1 76,13.1 67.2,28.5 67.7,28.5 77,12.3 		"/>
		<g id="XMLID_75_" class="st10">
			<defs>
				<polyline id="XMLID_74_" points="67.7,28.5 67.2,28.5 49.9,58.4 50.3,58.7 45.5,67 45.5,67 67.7,28.5 				"/>
			</defs>
			<clipPath id="XMLID_99_">
				<use xlink:href="#XMLID_74_"  style="overflow:visible;"/>
			</clipPath>
			<g style="clip-path:url(#XMLID_99_);">
				
					<image style="overflow:visible;" width="28" height="47" id="XMLID_43_" xlink:href="23E38157.jpg"  transform="matrix(0.8554 0 0 0.8554 44.6012 27.6631)">
				</image>
			</g>
		</g>
		<polyline id="XMLID_73_" class="st11" points="77,12.3 76.5,12.3 76,13.1 76.5,13.1 77,12.3 		"/>
	</g>
	<g id="XMLID_78_">
		<defs>
			<path id="XMLID_77_" d="M77,12.3H41.2L12.6,61.9c-1.8,3.2-1.8,7.1,0,10.3l28.6,49.6H77L45.5,67L77,12.3"/>
		</defs>
		<clipPath id="XMLID_100_">
			<use xlink:href="#XMLID_77_"  style="overflow:visible;"/>
		</clipPath>
		<path id="XMLID_79_" class="st12" d="M27.6,36L12.6,61.9c0,0-0.1,0.1-0.1,0.1l0,0c0,0,0,0,0,0c0,0,0,0,0,0c0,0,0,0,0,0
			c0,0,0,0,0,0l0,0c-0.9,1.6-1.3,3.5-1.2,5.3c0-0.3,0-0.5,0-0.8c0,0.1,0,0.3,0,0.4c0.1-1.5,0.5-2.9,1.3-4.3l14.9-25.9L76,120.9h0.5
			l0.5,0.8l0,0L27.8,36.4l0,0L27.6,36"/>
		<path id="XMLID_82_" class="st13" d="M76.5,120.9H76l0.5,0.8H77L76.5,120.9 M11.3,66.6c0,0.3,0,0.5,0,0.8c0,0,0,0,0,0
			c0-0.1,0-0.3,0-0.4C11.3,66.9,11.3,66.7,11.3,66.6"/>
		<polyline id="XMLID_83_" class="st14" points="27.6,36 27.6,36 27.8,36.4 27.8,36.4 27.6,36 		"/>
	</g>
	<g id="XMLID_85_">
		<defs>
			<path id="XMLID_84_" d="M77,12.3H41.2L12.6,61.9c-1.8,3.2-1.8,7.1,0,10.3l28.6,49.6H77L45.5,67L77,12.3"/>
		</defs>
		<clipPath id="XMLID_103_">
			<use xlink:href="#XMLID_84_"  style="overflow:visible;"/>
		</clipPath>
		<g id="XMLID_88_" class="st15">
			<defs>
				<polyline id="XMLID_87_" points="27.9,36.3 27.8,36.4 42.7,62.1 45.4,67 45.2,66.6 49.9,58.4 27.9,36.3 				"/>
			</defs>
			<clipPath id="XMLID_104_">
				<use xlink:href="#XMLID_87_"  style="overflow:visible;"/>
			</clipPath>
			<g style="clip-path:url(#XMLID_104_);">
				
					<image style="overflow:visible;" width="28" height="38" id="XMLID_42_" xlink:href="23E38152.jpg"  transform="matrix(0.8554 0 0 0.8554 26.6389 35.3615)">
				</image>
			</g>
		</g>
		<g id="XMLID_91_" class="st15">
			<defs>
				<polyline id="XMLID_90_" points="42.7,62.1 45.5,67 45.4,67 42.7,62.1 				"/>
			</defs>
			<clipPath id="XMLID_105_">
				<use xlink:href="#XMLID_90_"  style="overflow:visible;"/>
			</clipPath>
			<g style="clip-path:url(#XMLID_105_);">
				
					<image style="overflow:visible;" width="10" height="15" id="XMLID_41_" xlink:href="23E38153.jpg"  transform="matrix(0.4106 0 0 -0.4106 42.1378 67.7834)">
				</image>
			</g>
		</g>
		<g id="XMLID_94_" class="st15">
			<defs>
				<polyline id="XMLID_93_" points="27.6,36 27.8,36.4 27.9,36.3 27.6,36 				"/>
			</defs>
			<clipPath id="XMLID_106_">
				<use xlink:href="#XMLID_93_"  style="overflow:visible;"/>
			</clipPath>
			<g style="clip-path:url(#XMLID_106_);">
				
					<image style="overflow:visible;" width="3" height="3" id="XMLID_40_" xlink:href="23E3815E.jpg"  transform="matrix(0.8554 0 0 0.8554 26.6389 35.3615)">
				</image>
			</g>
		</g>
		<g id="XMLID_98_" class="st15">
			<defs>
				<polyline id="XMLID_97_" points="49.9,58.4 45.2,66.6 45.4,67 45.5,67 50.3,58.7 49.9,58.4 				"/>
			</defs>
			<clipPath id="XMLID_114_">
				<use xlink:href="#XMLID_97_"  style="overflow:visible;"/>
			</clipPath>
			<g style="clip-path:url(#XMLID_114_);">
				
					<image style="overflow:visible;" width="8" height="12" id="XMLID_39_" xlink:href="23E3815F.jpg"  transform="matrix(0.8554 0 0 0.8554 44.6012 57.6006)">
				</image>
			</g>
		</g>
	</g>
	<g id="XMLID_101_">
		<defs>
			<path id="XMLID_86_" d="M160.4,61.9l-28.6-49.6H96L127.6,67L96,121.8h35.8l28.6-49.6C162.2,69,162.2,65.1,160.4,61.9"/>
		</defs>
		<clipPath id="XMLID_117_">
			<use xlink:href="#XMLID_86_"  style="overflow:visible;"/>
		</clipPath>
		<polyline id="XMLID_102_" class="st16" points="127.6,67 96,121.8 131.8,121.8 145.5,98 127.6,67 		"/>
	</g>
	<g id="XMLID_108_">
		<defs>
			<path id="XMLID_107_" d="M160.4,61.9l-28.6-49.6H96L127.6,67L96,121.8h35.8l28.6-49.6C162.2,69,162.2,65.1,160.4,61.9"/>
		</defs>
		<clipPath id="XMLID_123_">
			<use xlink:href="#XMLID_107_"  style="overflow:visible;"/>
		</clipPath>
		<g id="XMLID_113_" class="st17">
			<defs>
				<path id="XMLID_112_" d="M160.4,61.9c0.2,0.3,0.3,0.5,0.4,0.8c1.4,2.9,1.3,6.3-0.3,9.2c0,0,0,0,0,0c0,0,0,0,0,0c0,0,0,0,0,0
					c0,0,0,0,0,0c0,0.1-0.1,0.1-0.1,0.2l0,0C162.2,69,162.2,65.1,160.4,61.9 M96,12.3L96,12.3L96,12.3L96,12.3L96,12.3"/>
			</defs>
			<clipPath id="XMLID_127_">
				<use xlink:href="#XMLID_112_"  style="overflow:visible;"/>
			</clipPath>
			<g style="clip-path:url(#XMLID_127_);">
				
					<image style="overflow:visible;" width="80" height="72" id="XMLID_38_" xlink:href="23E38154.jpg"  transform="matrix(0.8554 0 0 0.8554 95.067 11.4116)">
				</image>
			</g>
		</g>
		<g id="XMLID_116_" class="st17">
			<defs>
				<polyline id="XMLID_115_" points="123.1,75.6 105.9,105.5 141.2,105.5 145.5,98 142.1,92.1 145.4,98 123.1,75.6 				"/>
			</defs>
			<clipPath id="XMLID_134_">
				<use xlink:href="#XMLID_115_"  style="overflow:visible;"/>
			</clipPath>
			<g style="clip-path:url(#XMLID_134_);">
				
					<image style="overflow:visible;" width="48" height="37" id="XMLID_37_" xlink:href="23E38155.jpg"  transform="matrix(0.8554 0 0 0.8554 105.3313 74.7076)">
				</image>
			</g>
		</g>
		<path id="XMLID_109_" class="st18" d="M160.4,72.1c1.8-3.2,1.8-7.1,0-10.3l-28.6-49.6H96l49.5,85.8L160.4,72.1"/>
	</g>
	<g id="XMLID_119_">
		<defs>
			<path id="XMLID_118_" d="M160.4,61.9l-28.6-49.6H96L127.6,67L96,121.8h35.8l28.6-49.6C162.2,69,162.2,65.1,160.4,61.9"/>
		</defs>
		<clipPath id="XMLID_142_">
			<use xlink:href="#XMLID_118_"  style="overflow:visible;"/>
		</clipPath>
		<g id="XMLID_122_" class="st19">
			<defs>
				<polyline id="XMLID_121_" points="96,12.3 96,12.3 96,12.3 96,12.3 96,12.3 				"/>
			</defs>
			<clipPath id="XMLID_146_">
				<use xlink:href="#XMLID_121_"  style="overflow:visible;"/>
			</clipPath>
			<g style="clip-path:url(#XMLID_146_);">
				
					<image style="overflow:visible;" width="3" height="3" id="XMLID_36_" xlink:href="2FE1B0EF.jpg"  transform="matrix(0.8554 0 0 0.8554 95.067 11.4116)">
				</image>
			</g>
		</g>
		<polyline id="XMLID_120_" class="st20" points="96,12.3 96,12.3 96,12.3 96,12.3 		"/>
		<g id="XMLID_126_" class="st19">
			<defs>
				<path id="XMLID_125_" d="M131.8,12.3H96.5l0,0L131.8,12.3l28.6,49.6c0.2,0.3,0.3,0.5,0.4,0.8c-0.1-0.3-0.3-0.5-0.4-0.8l0,0
					L131.8,12.3"/>
			</defs>
			<clipPath id="XMLID_151_">
				<use xlink:href="#XMLID_125_"  style="overflow:visible;"/>
			</clipPath>
			<g style="clip-path:url(#XMLID_151_);">
				
					<image style="overflow:visible;" width="77" height="61" id="XMLID_34_" xlink:href="2FE1B0ED.jpg"  transform="matrix(0.8554 0 0 0.8554 95.9224 11.4116)">
				</image>
			</g>
		</g>
		<path id="XMLID_124_" class="st20" d="M131.8,12.3H96.5l0.5,0.8h34.8l28.6,49.6c0.8,1.3,1.2,2.8,1.3,4.3c0-0.1,0-0.3,0-0.4
			c0,0,0,0,0,0c0-1.3-0.4-2.7-0.9-3.9c-0.1-0.3-0.3-0.5-0.4-0.8L131.8,12.3"/>
	</g>
	<g id="XMLID_129_">
		<defs>
			<path id="XMLID_128_" d="M160.4,61.9l-28.6-49.6H96L127.6,67L96,121.8h35.8l28.6-49.6C162.2,69,162.2,65.1,160.4,61.9"/>
		</defs>
		<clipPath id="XMLID_154_">
			<use xlink:href="#XMLID_128_"  style="overflow:visible;"/>
		</clipPath>
		<polyline id="XMLID_130_" class="st21" points="105.9,105.5 105.4,105.5 96,121.8 96.5,121.8 105.9,105.5 		"/>
		<g id="XMLID_133_" class="st22">
			<defs>
				<polyline id="XMLID_132_" points="122.8,75.3 105.4,105.5 105.9,105.5 123.1,75.6 122.8,75.3 				"/>
			</defs>
			<clipPath id="XMLID_157_">
				<use xlink:href="#XMLID_132_"  style="overflow:visible;"/>
			</clipPath>
			<g style="clip-path:url(#XMLID_157_);">
				
					<image style="overflow:visible;" width="23" height="37" id="XMLID_33_" xlink:href="2FE1B0EB.jpg"  transform="matrix(0.8554 0 0 0.8554 104.4759 74.7076)">
				</image>
			</g>
		</g>
	</g>
	<g id="XMLID_135_">
		<defs>
			<path id="XMLID_131_" d="M160.4,61.9l-28.6-49.6H96L127.6,67L96,121.8h35.8l28.6-49.6C162.2,69,162.2,65.1,160.4,61.9"/>
		</defs>
		<clipPath id="XMLID_160_">
			<use xlink:href="#XMLID_131_"  style="overflow:visible;"/>
		</clipPath>
		<g id="XMLID_141_" class="st23">
			<defs>
				<path id="XMLID_140_" d="M160.5,72c0,0.1-0.1,0.1-0.1,0.2C160.4,72.1,160.5,72,160.5,72 M160.5,71.9
					C160.5,71.9,160.5,71.9,160.5,71.9C160.5,71.9,160.5,71.9,160.5,71.9 M160.5,71.9C160.5,71.9,160.5,71.9,160.5,71.9
					C160.5,71.9,160.5,71.9,160.5,71.9"/>
			</defs>
			<clipPath id="XMLID_163_">
				<use xlink:href="#XMLID_140_"  style="overflow:visible;"/>
			</clipPath>
			<g style="clip-path:url(#XMLID_163_);">
				
					<image style="overflow:visible;" width="3" height="3" id="XMLID_32_" xlink:href="2FE1B0E5.jpg"  transform="matrix(0.8554 0 0 0.8554 159.2184 71.2862)">
				</image>
			</g>
		</g>
		<path id="XMLID_136_" class="st24" d="M96,12.3L145.5,98l14.9-25.9l0,0c0-0.1,0.1-0.1,0.1-0.2c0,0,0,0,0,0c0,0,0,0,0,0
			c0,0,0,0,0,0c0,0,0,0,0,0c0.9-1.6,1.3-3.5,1.2-5.3c0,0.3,0,0.5,0,0.8c0-0.1,0-0.3,0-0.4c-0.1,1.5-0.5,2.9-1.3,4.3l-14.9,25.9
			L97,13.1h-0.5L96,12.3"/>
		<g id="XMLID_145_" class="st23">
			<defs>
				<polyline id="XMLID_144_" points="96.5,12.3 96,12.3 96,12.3 96.5,12.3 96.5,12.3 				"/>
			</defs>
			<clipPath id="XMLID_164_">
				<use xlink:href="#XMLID_144_"  style="overflow:visible;"/>
			</clipPath>
			<g style="clip-path:url(#XMLID_164_);">
				
					<image style="overflow:visible;" width="3" height="3" id="XMLID_31_" xlink:href="2FE1B0E7.jpg"  transform="matrix(0.8554 0 0 0.8554 95.067 11.4116)">
				</image>
			</g>
		</g>
		<path id="XMLID_148_" class="st25" d="M161.8,66.6c0,0.1,0,0.3,0,0.4c0,0.1,0,0.3,0,0.4C161.8,67.2,161.8,66.9,161.8,66.6
			C161.8,66.6,161.8,66.6,161.8,66.6 M96.5,12.3H96l0,0.1l0.5,0.8H97L96.5,12.3"/>
	</g>
	<g id="XMLID_150_">
		<defs>
			<path id="XMLID_149_" d="M160.4,61.9l-28.6-49.6H96L127.6,67L96,121.8h35.8l28.6-49.6C162.2,69,162.2,65.1,160.4,61.9"/>
		</defs>
		<clipPath id="XMLID_165_">
			<use xlink:href="#XMLID_149_"  style="overflow:visible;"/>
		</clipPath>
		<g id="XMLID_153_" class="st26">
			<defs>
				<polyline id="XMLID_152_" points="127.8,67.4 123.1,75.6 145.4,98 142.1,92.1 127.8,67.4 				"/>
			</defs>
			<clipPath id="XMLID_166_">
				<use xlink:href="#XMLID_152_"  style="overflow:visible;"/>
			</clipPath>
			<g transform="matrix(1 0 0 1 7.629395e-06 0)" style="clip-path:url(#XMLID_166_);">
				
					<image style="overflow:visible;" width="28" height="37" id="XMLID_30_" xlink:href="2FE1B0FA.jpg"  transform="matrix(0.8554 0 0 0.8554 122.4382 67.0095)">
				</image>
			</g>
		</g>
		<g id="XMLID_156_" class="st26">
			<defs>
				<polyline id="XMLID_155_" points="127.6,67 127.6,67 127.8,67.4 142.1,92.1 127.6,67 				"/>
			</defs>
			<clipPath id="XMLID_167_">
				<use xlink:href="#XMLID_155_"  style="overflow:visible;"/>
			</clipPath>
			<g style="clip-path:url(#XMLID_167_);">
				
					<image style="overflow:visible;" width="38" height="64" id="XMLID_29_" xlink:href="2FE1B0FB.jpg"  transform="matrix(0.4106 0 0 -0.4106 127.1257 92.8281)">
				</image>
			</g>
		</g>
		<g id="XMLID_159_" class="st26">
			<defs>
				<polyline id="XMLID_158_" points="127.6,67 122.8,75.3 123.1,75.6 127.8,67.4 127.6,67 				"/>
			</defs>
			<clipPath id="XMLID_168_">
				<use xlink:href="#XMLID_158_"  style="overflow:visible;"/>
			</clipPath>
			<g transform="matrix(1 0 0 1 7.629395e-06 0)" style="clip-path:url(#XMLID_168_);">
				
					<image style="overflow:visible;" width="8" height="12" id="XMLID_3_" xlink:href="2FE1B0FD.jpg"  transform="matrix(0.8554 0 0 0.8554 121.5828 66.1541)">
				</image>
			</g>
		</g>
		<g id="XMLID_162_" class="st26">
			<defs>
				<polyline id="XMLID_161_" points="127.6,67 127.6,67 127.6,67 127.8,67.4 127.8,67.4 127.6,67 				"/>
			</defs>
			<clipPath id="XMLID_169_">
				<use xlink:href="#XMLID_161_"  style="overflow:visible;"/>
			</clipPath>
			<g style="clip-path:url(#XMLID_169_);">
				
					<image style="overflow:visible;" width="3" height="4" id="XMLID_1_" xlink:href="2FE1B0FF.jpg"  transform="matrix(0.4106 0 0 -0.4106 127.1257 68.1941)">
				</image>
			</g>
		</g>
	</g>
</g>
</svg>
