<?xml version="1.0" encoding="utf-8"?>
<!-- Generator: Adobe Illustrator 21.0.2, SVG Export Plug-In . SVG Version: 6.00 Build 0)  -->
<svg version="1.1" id="Layer_1" xmlns="http://www.w3.org/2000/svg" xmlns:xlink="http://www.w3.org/1999/xlink" x="0px" y="0px"
	 viewBox="0 0 643.8 217.6" style="enable-background:new 0 0 643.8 217.6;" xml:space="preserve">
<style type="text/css">
	.st0{fill:#6D6E6D;}
</style>
<g id="XMLID_2_">
	<path id="XMLID_45_" class="st0" d="M95.5,161.3c23.2,0,40.7-7.3,54.4-21.1c14.1-13.6,18.5-32.6,18.5-48c0-4.8-0.4-9.2-1.1-12.8
		H95.5v20.5h51c-1.5,11.5-5.5,20-11.6,25.9c-7.4,7.1-19,15-39.4,15c-31.4,0-55.9-24.4-55.9-54.6c0-30.3,24.5-54.6,55.9-54.6
		c16.9,0,29.3,6.4,38.4,14.7l15-14.5C136.2,20,119.2,11,95.5,11c-43,0-79.1,33.7-79.1,75.2C16.4,127.6,52.5,161.3,95.5,161.3z
		 M226.3,64.5c-27.8,0-50.4,20.4-50.4,48.4c0,27.9,22.6,48.4,50.4,48.4c27.8,0,50.4-20.5,50.4-48.4C276.7,84.9,254,64.5,226.3,64.5z
		 M226.3,142.3c-15.2,0-28.3-12.1-28.3-29.3c0-17.4,13.1-29.3,28.3-29.3s28.3,11.9,28.3,29.3C254.6,130.2,241.5,142.3,226.3,142.3z
		 M336.2,64.5c-27.8,0-50.4,20.4-50.4,48.4c0,27.9,22.6,48.4,50.4,48.4c27.8,0,50.4-20.5,50.4-48.4C386.6,84.9,364,64.5,336.2,64.5z
		 M336.2,142.3c-15.2,0-28.3-12.1-28.3-29.3c0-17.4,13.1-29.3,28.3-29.3c15.2,0,28.3,11.9,28.3,29.3
		C364.6,130.2,351.4,142.3,336.2,142.3z M471.2,67.5v7.9h-0.8c-4.9-5.7-14.5-10.8-26.4-10.8c-25.1,0-48.1,21.3-48.1,48.6
		c0,27.1,23,48.2,48.1,48.2c12,0,21.5-5.1,26.4-11h0.8v7c0,18.5-10.3,28.4-26.8,28.4c-13.5,0-21.9-9.4-25.3-17.2l-19.2,7.7
		c5.5,12.8,20.2,28.6,44.5,28.6c25.9,0,47.7-14.7,47.7-50.4V67.5H471.2z M445.9,142.3c-15.2,0-28-12.3-28-29.2
		c0-17,12.7-29.5,28-29.5c15,0,26.8,12.5,26.8,29.5C472.7,130,460.9,142.3,445.9,142.3z M529.4,16.1h-22.1v142.3h22.1V16.1z
		 M589.9,142.3c-11.2,0-19.2-5-24.3-14.7l67.1-26.8l-2.3-5.5c-4.2-10.8-16.9-30.8-43-30.8c-25.9,0-47.4,19.6-47.4,48.4
		c0,27.1,21.3,48.4,49.8,48.4c23,0,36.3-13.6,41.8-21.5l-17.1-11C608.9,136.9,601.1,142.3,589.9,142.3z M588.2,83.2
		c8.8,0,16.2,4.2,18.6,10.3l-44.9,18C561.3,92.8,576.9,83.2,588.2,83.2z"/>
</g>
</svg>
