<?xml version="1.0" encoding="utf-8"?>
<!-- Generator: Adobe Illustrator 21.0.2, SVG Export Plug-In . SVG Version: 6.00 Build 0)  -->
<svg version="1.1" id="Layer_1" xmlns="http://www.w3.org/2000/svg" xmlns:xlink="http://www.w3.org/1999/xlink" x="0px" y="0px"
	 viewBox="0 0 840 500" style="enable-background:new 0 0 840 500;" xml:space="preserve">
<style type="text/css">
	.st0{fill:url(#SVGID_1_);}
	.st1{fill:url(#SVGID_2_);}
	.st2{fill:url(#SVGID_3_);}
	.st3{fill:#3DBFF0;}
	.st4{fill:url(#SVGID_4_);}
	.st5{fill:#020203;}
	.st6{fill:#FFFFFF;}
</style>
<g>
	<g>
		
			<linearGradient id="SVGID_1_" gradientUnits="userSpaceOnUse" x1="256.3936" y1="38.3988" x2="599.5504" y2="472.9805" gradientTransform="matrix(1 0 0 -1 0 502)">
			<stop  offset="0" style="stop-color:#AA63A4"/>
			<stop  offset="0.5534" style="stop-color:#C65597"/>
			<stop  offset="1" style="stop-color:#D74D8E"/>
		</linearGradient>
		<path class="st0" d="M624.9,59.5c9.6-10.2,9.1-26.2-1-35.8s-26.2-9.1-35.8,1c0,0,0,0-0.1,0.1l0,0L231.1,433.2
			c-12.7,12.9-12.6,33.6,0.2,46.3c12.9,12.7,33.6,12.6,46.3-0.2c0.7-0.7,1.3-1.3,1.9-2.1l0,0L624.9,59.5z"/>
		
			<linearGradient id="SVGID_2_" gradientUnits="userSpaceOnUse" x1="322.0664" y1="320.2467" x2="600.0985" y2="456.758" gradientTransform="matrix(1 0 0 -1 0 502)">
			<stop  offset="0" style="stop-color:#E9427C"/>
			<stop  offset="0.225" style="stop-color:#E84581"/>
			<stop  offset="1" style="stop-color:#D74D8E"/>
		</linearGradient>
		<path class="st1" d="M631.8,41.2c-0.5-14-12.2-24.9-26.2-24.4c-3.8,0.1-7.6,1.1-10.9,2.9c-0.1,0-0.2,0.1-0.2,0.1L297.2,166.1
			c-10.5,4.6-15.2,16.9-10.5,27.3s16.9,15.2,27.3,10.5c0.4-0.2,0.8-0.4,1.2-0.6l0,0L615.8,65.6C625.8,61.7,632.2,51.9,631.8,41.2z"
			/>
		
			<linearGradient id="SVGID_3_" gradientUnits="userSpaceOnUse" x1="293.6517" y1="323.2896" x2="536.6167" y2="64.0433" gradientTransform="matrix(1 0 0 -1 0 502)">
			<stop  offset="0" style="stop-color:#E9427C"/>
			<stop  offset="2.053000e-02" style="stop-color:#E9437A"/>
			<stop  offset="0.671" style="stop-color:#ED6C50"/>
			<stop  offset="1" style="stop-color:#EF7B40"/>
		</linearGradient>
		<path class="st2" d="M545.6,388.4L320.7,171.9c-7.8-8.4-21-8.8-29.3-0.9c-8,7.5-8.8,19.9-1.8,28.3c0,0.1,0,0.1,0,0.1l195.8,242.8
			c13.4,17.9,38.8,21.6,56.7,8.2c17.9-13.4,21.6-38.8,8.2-56.7C549,391.8,547.4,390,545.6,388.4z"/>
		<g>
			<path class="st3" d="M535.9,381.6"/>
			
				<linearGradient id="SVGID_4_" gradientUnits="userSpaceOnUse" x1="249.1981" y1="247.0421" x2="554.783" y2="61.6873" gradientTransform="matrix(1 0 0 -1 0 502)">
				<stop  offset="0" style="stop-color:#3DBFF0"/>
				<stop  offset="0.2474" style="stop-color:#6EACBE"/>
				<stop  offset="0.6087" style="stop-color:#B69379"/>
				<stop  offset="0.869" style="stop-color:#E3824E"/>
				<stop  offset="1" style="stop-color:#EF7B40"/>
			</linearGradient>
			<path class="st4" d="M558.3,415.6c0.2-13-6.3-25.9-22.5-34c-19.2-9.8-38.5-19.3-57.8-28.9c-19.1-9.5-38.1-19.1-57.2-28.6
				c-19.1-9.6-38.2-19.1-57.3-28.7c-19.3-9.7-38.6-19.3-57.9-29c-18.8-9.5-61.9-31.2-61.9-31.2c-8.1-3.5-17.4,0.2-21,8.2
				c-3.1,7-0.7,15.2,5.6,19.5c0.1,0.1,0.2,0.2,0.3,0.2c0.1,0,0.1,0.1,0.2,0.1c0,0,4.8,3.2,7.4,5.2c4.4,3.3,9,6.3,13.5,9.5
				c8.6,6.1,17.3,12.2,25.9,18.3c17.8,12.5,35.6,25.1,53.3,37.7c17.4,12.3,34.9,24.7,52.3,37c17.6,12.5,35.2,24.9,52.8,37.4
				c17.6,12.5,35,25.4,52.9,37.5c2.2,1.5,4.2,3.3,6.4,4.6c0.5,0.3,0.9,0.5,1.4,0.8l-0.1,0.1c18.4,12.7,43.7,8.1,56.4-10.4
				c4.7-6.8,7.2-15,7.2-23.3C558.4,417,558.4,416.3,558.3,415.6z"/>
		</g>
	</g>
	<g>
		<rect x="311.7" y="193" class="st5" width="177.5" height="177.5"/>
		<rect x="327" y="337.2" class="st6" width="66.6" height="11.1"/>
		<g>
			<path class="st6" d="M326.3,239.7l5.2-4.9c1,1.6,2.7,2.6,4.5,2.7c2,0,3.3-1.4,3.3-4.1v-18.3h8v18.4c0.2,3-0.8,5.9-2.9,8.1
				c-2.1,2-5,3.1-7.9,2.9C332.4,244.8,328.6,243,326.3,239.7z"/>
			<path class="st6" d="M349.1,215.2h23.3v6.8H357v4.4h13.9v6.3H357v4.6h15.5v6.8h-23.5V215.2z"/>
			<path class="st6" d="M382.8,222.2h-8.6v-7h25.3v7h-8.7v21.9h-8V222.2z"/>
			<path class="st6" d="M327,250.9h14.8c2.9-0.2,5.7,0.7,7.9,2.6c1.2,1.3,1.9,3,1.9,4.7v0.1c0.1,2.9-1.7,5.5-4.5,6.4
				c3.5,1.2,5.7,3.1,5.7,7.1v0.1c0,5-4.1,8-11,8H327V250.9z M343.7,259.8c0-1.6-1.3-2.5-3.6-2.5h-5.2v5.1h5
				C342.3,262.4,343.7,261.6,343.7,259.8L343.7,259.8z M340.9,268h-6.1v5.3h6.2c2.5,0,3.8-1,3.8-2.6v-0.1
				C344.9,269,343.6,268,340.9,268z"/>
			<path class="st6" d="M354.1,250.9h13.7c4.4,0,7.5,1.2,9.4,3.1c1.8,1.8,2.7,4.2,2.6,6.7v0.1c0.1,3.9-2.3,7.5-6,8.9l6.9,10.1h-9.2
				l-5.8-8.8h-3.6v8.8h-8V250.9z M367.4,264.7c2.7,0,4.3-1.3,4.3-3.4v-0.1c0-2.3-1.7-3.5-4.3-3.5h-5.3v7H367.4z"/>
			<path class="st6" d="M389.1,250.7h7.7l12.3,29.1h-8.6l-2.1-5.2h-11.2l-2.1,5.2h-8.4L389.1,250.7z M396.2,268.3l-3.2-8.2l-3.3,8.2
				H396.2z"/>
			<path class="st6" d="M410.1,250.9h8v28.9h-8V250.9z"/>
			<path class="st6" d="M420.1,250.9h7.5l11.9,15.3v-15.3h7.9v28.9h-7l-12.4-15.9v15.9h-7.9L420.1,250.9z"/>
			<path class="st6" d="M448,275.5l4.5-5.3c2.6,2.2,5.9,3.4,9.4,3.5c2.2,0,3.3-0.7,3.3-2v-0.1c0-1.2-1-1.9-4.9-2.8
				c-6.2-1.4-10.9-3.1-10.9-9.1v-0.1c0-5.4,4.3-9.3,11.2-9.3c4.3-0.2,8.5,1.2,11.9,3.8l-4,5.7c-2.3-1.8-5.2-2.8-8.1-2.9
				c-1.9,0-2.9,0.8-2.9,1.9v0.1c0,1.3,1,1.9,5,2.8c6.6,1.4,10.7,3.6,10.7,9v0.1c0,5.9-4.7,9.4-11.7,9.4
				C456.6,280.4,451.7,278.7,448,275.5z"/>
		</g>
	</g>
</g>
</svg>
